<?xml version="1.0" standalone="no"?>
<!DOCTYPE svg PUBLIC "-//W3C//DTD SVG 20010904//EN"
 "http://www.w3.org/TR/2001/REC-SVG-20010904/DTD/svg10.dtd">
<svg version="1.0" xmlns="http://www.w3.org/2000/svg"
 width="1223.000000pt" height="1223.000000pt" viewBox="0 0 1223.000000 1223.000000"
 preserveAspectRatio="xMidYMid meet">
<metadata>
Created by potrace 1.14, written by Peter Selinger 2001-2017
</metadata>
<g transform="translate(0.000000,1223.000000) scale(0.100000,-0.100000)"
fill="#000000" stroke="none">
<path d="M6119 11947 c-70 -47 -69 -34 -69 -597 0 -461 2 -508 18 -539 27 -54
65 -76 127 -76 62 0 100 22 127 76 16 31 18 78 18 544 0 491 -1 511 -20 543
-43 70 -135 93 -201 49z"/>
<path d="M2665 10766 c-17 -7 -43 -28 -58 -45 -22 -27 -27 -42 -27 -89 l0 -57
414 -414 414 -414 61 5 c47 3 67 10 87 29 55 51 68 112 38 175 -17 35 -790
803 -821 816 -29 11 -75 8 -108 -6z"/>
<path d="M9365 10766 c-41 -19 -802 -784 -815 -819 -45 -122 85 -242 198 -183
48 26 810 798 818 829 22 91 -35 177 -123 184 -28 2 -60 -2 -78 -11z"/>
<path d="M5820 9880 c-704 -67 -1330 -360 -1826 -855 -175 -175 -255 -269
-373 -445 -196 -293 -316 -558 -405 -900 -52 -197 -75 -349 -86 -563 -17 -324
-63 -570 -159 -847 -16 -47 -124 -334 -240 -638 -116 -305 -211 -558 -211
-562 0 -5 208 -11 478 -12 456 -3 478 -4 511 -23 19 -11 43 -33 55 -48 21 -28
21 -38 26 -635 l5 -607 27 -68 c48 -119 120 -207 230 -278 104 -67 165 -79
432 -87 l233 -8 75 -37 c114 -56 191 -150 222 -272 12 -46 16 -115 16 -302 l0
-243 265 0 265 0 0 1137 c0 1267 3 1203 -69 1299 -57 75 -137 112 -271 124
-172 15 -285 65 -395 175 -109 108 -174 275 -175 442 l0 71 -65 22 c-85 28
-171 87 -239 161 -135 149 -185 351 -136 543 28 109 74 190 155 272 113 115
254 174 415 174 237 0 443 -131 540 -345 39 -86 54 -157 54 -260 -1 -161 -63
-305 -181 -415 -57 -54 -181 -127 -242 -143 -23 -6 -24 -8 -18 -84 9 -108 30
-164 88 -227 65 -71 125 -96 254 -107 55 -4 122 -15 149 -23 143 -46 286 -167
349 -296 71 -145 67 -68 67 -1357 l0 -1163 145 0 145 0 0 2348 0 2348 -67 28
c-226 93 -372 310 -373 553 0 97 15 163 59 258 97 207 300 336 532 336 112 0
183 -17 282 -69 132 -68 231 -186 283 -337 39 -112 39 -254 2 -368 -61 -184
-218 -341 -386 -386 l-42 -12 0 -2349 0 -2350 155 0 154 0 3 1173 3 1172 31
85 c53 150 146 261 277 334 85 47 154 66 272 75 122 10 181 36 248 111 57 63
77 121 77 223 0 73 -2 79 -22 85 -13 3 -59 24 -102 45 -112 56 -201 147 -254
258 -48 100 -62 162 -62 272 0 168 53 290 180 417 98 98 175 141 298 167 259
53 532 -78 648 -312 155 -315 6 -699 -320 -826 l-71 -27 -7 -98 c-13 -174 -62
-295 -168 -408 -105 -111 -231 -169 -405 -186 -163 -15 -243 -61 -303 -175
l-27 -50 -3 -1167 -2 -1168 248 0 249 0 6 393 c6 405 13 485 57 690 63 290
206 609 386 859 95 133 135 179 359 408 284 292 431 489 579 780 208 408 310
807 323 1261 16 593 -124 1126 -429 1629 -231 382 -581 735 -968 975 -337 209
-736 353 -1155 416 -151 23 -506 33 -655 19z"/>
<path d="M6023 8030 c-117 -24 -220 -129 -243 -248 -20 -106 20 -215 105 -290
119 -105 312 -96 420 19 65 69 89 127 89 215 1 194 -180 343 -371 304z"/>
<path d="M1473 7410 c-107 -48 -112 -205 -9 -254 30 -14 97 -16 548 -16 494 0
514 1 546 20 98 60 94 193 -8 247 l-43 23 -496 0 c-467 0 -498 -2 -538 -20z"/>
<path d="M9620 7419 c-91 -36 -126 -151 -69 -223 45 -57 33 -56 596 -56 496 0
519 1 550 20 42 25 66 74 65 129 0 55 -24 89 -82 119 -44 22 -45 22 -540 21
-303 0 -505 -4 -520 -10z"/>
<path d="M4482 6572 c-215 -77 -282 -350 -124 -508 66 -67 130 -94 218 -94 39
0 90 7 115 15 60 21 134 87 167 149 23 44 27 63 27 141 0 78 -4 97 -27 141
-73 139 -235 206 -376 156z"/>
<path d="M7535 6580 c-101 -21 -180 -83 -225 -175 -33 -68 -34 -178 -2 -250
27 -59 80 -117 142 -153 40 -24 55 -27 140 -27 105 0 139 11 207 70 89 76 127
219 89 333 -46 137 -210 232 -351 202z"/>
<path d="M4830 1875 l0 -285 833 0 832 0 40 -23 c96 -54 98 -186 4 -242 -33
-20 -55 -20 -873 -23 l-839 -3 6 -74 c7 -96 50 -181 120 -236 91 -73 39 -70
1143 -67 l989 3 46 23 c116 57 179 149 187 277 l5 73 -199 4 c-228 4 -249 10
-285 80 -38 74 -13 150 61 188 35 18 59 20 230 20 l190 0 0 285 0 285 -1245 0
-1245 0 0 -285z"/>
<path d="M5930 575 c0 -227 5 -252 59 -298 26 -21 43 -27 83 -27 61 0 99 21
127 70 19 35 21 53 21 249 l0 211 -145 0 -145 0 0 -205z"/>
</g>
</svg>
